<svg width="57" height="57" viewBox="0 0 57 57" fill="none" xmlns="http://www.w3.org/2000/svg">
<path fill-rule="evenodd" clip-rule="evenodd" d="M28.5 0C12.7602 0 0 12.7602 0 28.5C0 44.2398 12.7602 57 28.5 57C44.2398 57 57 44.2398 57 28.5C57 12.7602 44.2398 0 28.5 0ZM31.0909 38.8636C31.0909 39.5508 30.8179 40.2098 30.332 40.6957C29.8462 41.1816 29.1872 41.4545 28.5 41.4545C27.8128 41.4545 27.1538 41.1816 26.6679 40.6957C26.1821 40.2098 25.9091 39.5508 25.9091 38.8636V31.0909H18.1364C17.4492 31.0909 16.7902 30.8179 16.3043 30.332C15.8184 29.8462 15.5455 29.1872 15.5455 28.5C15.5455 27.8128 15.8184 27.1538 16.3043 26.6679C16.7902 26.1821 17.4492 25.9091 18.1364 25.9091H25.9091V18.1364C25.9091 17.4492 26.1821 16.7902 26.6679 16.3043C27.1538 15.8184 27.8128 15.5455 28.5 15.5455C29.1872 15.5455 29.8462 15.8184 30.332 16.3043C30.8179 16.7902 31.0909 17.4492 31.0909 18.1364V25.9091H38.8636C39.5508 25.9091 40.2098 26.1821 40.6957 26.6679C41.1816 27.1538 41.4545 27.8128 41.4545 28.5C41.4545 29.1872 41.1816 29.8462 40.6957 30.332C40.2098 30.8179 39.5508 31.0909 38.8636 31.0909H31.0909V38.8636Z" fill="white"/>
</svg>
