<svg width="795" height="121" viewBox="0 0 795 121" fill="none" xmlns="http://www.w3.org/2000/svg">
<path d="M37.632 96.96C33.024 96.96 28.672 96.064 24.576 94.272C20.48 92.48 16.896 90.016 13.824 86.88C10.752 83.68 8.32 80 6.528 75.84C4.8 71.616 3.936 67.104 3.936 62.304C3.936 57.504 4.8 53.024 6.528 48.864C8.32 44.704 10.752 41.056 13.824 37.92C16.96 34.72 20.608 32.256 24.768 30.528C28.992 28.736 33.536 27.84 38.4 27.84C43.712 27.84 48.64 28.864 53.184 30.912C57.728 32.96 61.536 35.872 64.608 39.648L57.12 47.136C55.136 44.32 52.48 42.176 49.152 40.704C45.824 39.168 42.24 38.4 38.4 38.4C33.792 38.4 29.728 39.424 26.208 41.472C22.752 43.456 20.064 46.24 18.144 49.824C16.224 53.408 15.264 57.568 15.264 62.304C15.264 67.04 16.224 71.232 18.144 74.88C20.128 78.464 22.784 81.28 26.112 83.328C29.44 85.376 33.216 86.4 37.44 86.4C41.92 86.4 45.76 85.6 48.96 84C52.224 82.336 54.72 79.904 56.448 76.704C58.176 73.44 59.04 69.44 59.04 64.704L65.952 69.696H37.248V59.616H70.464V61.152C70.464 69.152 69.024 75.808 66.144 81.12C63.328 86.432 59.456 90.4 54.528 93.024C49.6 95.648 43.968 96.96 37.632 96.96ZM98.6362 67.488V58.368H115.628C119.02 58.368 121.644 57.504 123.5 55.776C125.42 53.984 126.38 51.52 126.38 48.384C126.38 45.568 125.452 43.2 123.596 41.28C121.74 39.36 119.116 38.4 115.724 38.4H98.6362V28.8H116.204C120.428 28.8 124.14 29.664 127.34 31.392C130.54 33.056 133.004 35.36 134.732 38.304C136.524 41.184 137.42 44.48 137.42 48.192C137.42 52.096 136.524 55.488 134.732 58.368C133.004 61.248 130.54 63.488 127.34 65.088C124.14 66.688 120.428 67.488 116.204 67.488H98.6362ZM91.0522 96V28.8H102.092V96H91.0522ZM127.916 96L104.396 66.816L114.668 63.072L141.836 96H127.916ZM159.621 96V28.8H170.661V96H159.621ZM167.205 96V85.92H204.837V96H167.205ZM167.205 66.528V56.832H201.573V66.528H167.205ZM167.205 38.88V28.8H204.357V38.88H167.205ZM225.846 96V28.8H236.886V96H225.846ZM233.43 96V85.92H271.062V96H233.43ZM233.43 66.528V56.832H267.798V66.528H233.43ZM233.43 38.88V28.8H270.582V38.88H233.43ZM292.071 96V28.8H299.751L303.111 41.472V96H292.071ZM338.631 96L298.407 43.488L299.751 28.8L339.975 81.312L338.631 96ZM338.631 96L335.271 84.192V28.8H346.311V96H338.631ZM385.46 96L363.956 27.648H383.06L398.228 80.256H389.396L404.372 27.648H420.212L435.188 80.256H426.452L441.62 27.648H460.532L439.028 96H423.092L408.116 43.488H416.372L401.396 96H385.46ZM567.52 68.736V55.488H579.136C581.76 55.488 583.744 54.848 585.088 53.568C586.496 52.288 587.2 50.592 587.2 48.48C587.2 46.368 586.496 44.672 585.088 43.392C583.744 42.112 581.76 41.472 579.136 41.472H567.52V27.648H582.208C586.944 27.648 591.104 28.512 594.688 30.24C598.272 31.968 601.088 34.368 603.136 37.44C605.184 40.512 606.208 44.096 606.208 48.192C606.208 52.288 605.152 55.872 603.04 58.944C600.992 62.016 598.112 64.416 594.4 66.144C590.688 67.872 586.304 68.736 581.248 68.736H567.52ZM551.968 96V27.648H571.168V96H551.968ZM588.832 96L570.208 66.816L587.488 63.072L610.624 96H588.832ZM666.509 96L642.604 60.384L665.357 27.648H688.493L662.188 63.168L662.092 57.024L689.548 96H666.509ZM625.036 96V27.648H644.236V96H625.036ZM724.123 97.152C718.299 97.152 713.211 96.32 708.859 94.656C704.571 92.928 700.603 90.208 696.955 86.496L708.955 74.496C711.451 76.864 714.075 78.688 716.827 79.968C719.579 81.184 722.523 81.792 725.659 81.792C728.283 81.792 730.267 81.408 731.611 80.64C732.955 79.808 733.627 78.688 733.627 77.28C733.627 75.872 733.051 74.72 731.899 73.824C730.747 72.864 729.211 72.032 727.291 71.328C725.435 70.56 723.355 69.792 721.051 69.024C718.811 68.256 716.571 67.328 714.331 66.24C712.091 65.152 710.011 63.84 708.091 62.304C706.235 60.704 704.731 58.752 703.579 56.448C702.427 54.08 701.851 51.2 701.851 47.808C701.851 43.392 702.907 39.584 705.019 36.384C707.131 33.184 710.107 30.752 713.947 29.088C717.787 27.36 722.299 26.496 727.483 26.496C732.603 26.496 737.339 27.328 741.691 28.992C746.107 30.592 749.755 32.896 752.635 35.904L740.539 47.904C738.427 45.856 736.315 44.352 734.203 43.392C732.091 42.368 729.787 41.856 727.291 41.856C725.307 41.856 723.707 42.176 722.491 42.816C721.339 43.456 720.763 44.416 720.763 45.696C720.763 47.04 721.339 48.16 722.491 49.056C723.643 49.888 725.147 50.656 727.003 51.36C728.923 52.064 731.003 52.8 733.243 53.568C735.547 54.336 737.819 55.264 740.059 56.352C742.299 57.376 744.347 58.72 746.203 60.384C748.123 61.984 749.659 64 750.811 66.432C751.963 68.864 752.539 71.808 752.539 75.264C752.539 82.24 750.043 87.648 745.051 91.488C740.123 95.264 733.147 97.152 724.123 97.152Z" fill="#fff"/>
<path d="M779.359 97.152C776.351 97.152 773.855 96.128 771.871 94.08C769.887 92.032 768.895 89.536 768.895 86.592C768.895 83.584 769.887 81.056 771.871 79.008C773.855 76.96 776.351 75.936 779.359 75.936C782.367 75.936 784.831 76.96 786.751 79.008C788.735 81.056 789.727 83.584 789.727 86.592C789.727 89.536 788.735 92.032 786.751 94.08C784.831 96.128 782.367 97.152 779.359 97.152Z" fill="#37BC2B"/>
<path d="M531.752 34.9172C535.126 38.2914 537.689 42.1739 539.441 46.5647C541.193 50.9555 542.069 55.3788 542.069 59.8345C542.069 64.2902 541.193 68.7134 539.441 73.1042C537.689 77.495 535.126 81.3775 531.752 84.7517C528.031 88.472 523.711 91.2244 518.79 93.0088C513.869 94.7932 508.803 95.4367 503.59 94.9392C503.222 94.8743 502.909 94.7013 502.649 94.4201C502.39 94.1389 502.26 93.8253 502.26 93.4792L502.227 84.557C502.249 84.1461 502.422 83.7784 502.746 83.4539C503.136 83.1511 503.514 83.0322 503.882 83.097C507.516 83.5729 511.041 83.2268 514.459 82.0588C517.876 80.8908 520.872 79.0199 523.446 76.446C525.695 74.1965 527.404 71.6118 528.572 68.6918C529.74 65.7718 530.324 62.8193 530.324 59.8345C530.324 56.8496 529.74 53.8972 528.572 50.9772C527.404 48.0572 525.695 45.4725 523.446 43.223C521.196 40.9735 518.612 39.2648 515.692 38.0968C512.772 36.9288 509.819 36.3448 506.834 36.3448C503.85 36.3448 500.897 36.9288 497.977 38.0968C495.057 39.2648 492.472 40.9735 490.223 43.223C488.103 45.3427 486.454 47.7598 485.275 50.4743C484.096 53.1888 483.464 56.0169 483.377 58.9585L492.299 58.9909C493.619 58.9693 494.516 59.5641 494.992 60.7754C495.49 62.0082 495.284 63.0789 494.376 63.9873L479.841 78.5224C479.278 79.0848 478.586 79.366 477.764 79.366C476.942 79.366 476.25 79.0848 475.688 78.5224L461.153 63.9873C460.244 63.0789 460.039 62.0082 460.536 60.7754C461.012 59.5641 461.91 58.9693 463.229 58.9909L471.632 58.9585C471.762 54.4595 472.714 50.1228 474.487 45.9483C476.261 41.7738 478.738 38.0968 481.917 34.9172C485.291 31.543 489.174 28.9799 493.565 27.2279C497.956 25.4759 502.379 24.5999 506.834 24.5999C511.29 24.5999 515.713 25.4759 520.104 27.2279C524.495 28.9799 528.377 31.543 531.752 34.9172Z" fill="#37BC2B"/>
</svg>
