<svg width="83" height="72" viewBox="0 0 83 72" fill="none" xmlns="http://www.w3.org/2000/svg">
<path d="M71.7517 10.9172C75.1259 14.2914 77.689 18.174 79.441 22.5647C81.193 26.9555 82.069 31.3788 82.069 35.8345C82.069 40.2902 81.193 44.7134 79.441 49.1042C77.689 53.495 75.1259 57.3775 71.7517 60.7517C68.0314 64.472 63.7109 67.2244 58.7902 69.0088C53.8695 70.7932 48.8028 71.4367 43.59 70.9392C43.2223 70.8743 42.9087 70.7013 42.6492 70.4201C42.3896 70.1389 42.2598 69.8253 42.2598 69.4792L42.2274 60.557C42.249 60.1461 42.422 59.7784 42.7465 59.4539C43.1358 59.1511 43.5143 59.0322 43.882 59.097C47.5158 59.5729 51.0414 59.2268 54.4589 58.0588C57.8764 56.8908 60.872 55.0199 63.446 52.446C65.6954 50.1965 67.4042 47.6118 68.5722 44.6918C69.7402 41.7718 70.3242 38.8193 70.3242 35.8345C70.3242 32.8496 69.7402 29.8972 68.5722 26.9772C67.4042 24.0572 65.6954 21.4725 63.446 19.223C61.1965 16.9735 58.6118 15.2648 55.6918 14.0968C52.7718 12.9288 49.8193 12.3448 46.8345 12.3448C43.8496 12.3448 40.8972 12.9288 37.9772 14.0968C35.0572 15.2648 32.4725 16.9735 30.223 19.223C28.1033 21.3427 26.454 23.7598 25.2752 26.4743C24.0964 29.1888 23.4637 32.0169 23.3772 34.9585L32.2994 34.9909C33.6188 34.9693 34.5164 35.5641 34.9923 36.7754C35.4898 38.0082 35.2843 39.0789 34.3759 39.9873L19.8408 54.5224C19.2784 55.0848 18.5863 55.366 17.7644 55.366C16.9424 55.366 16.2503 55.0848 15.6879 54.5224L1.15287 39.9873C0.244432 39.0789 0.038951 38.0082 0.53643 36.7754C1.01228 35.5641 1.90991 34.9693 3.22931 34.9909L11.6324 34.9585C11.7622 30.4595 12.7139 26.1228 14.4875 21.9483C16.2611 17.7738 18.7377 14.0968 21.9172 10.9172C25.2914 7.54303 29.1739 4.97993 33.5647 3.22793C37.9555 1.47594 42.3788 0.599946 46.8345 0.599945C51.2902 0.599945 55.7134 1.47594 60.1042 3.22793C64.495 4.97993 68.3775 7.54303 71.7517 10.9172Z" fill="#37BC2B"/>
</svg>
